<svg width="40" height="41" viewBox="0 0 40 41" fill="none" xmlns="http://www.w3.org/2000/svg">
<path d="M11.6418 4.87871C14.4279 1.19712 22.0896 -3.95711 30.4478 4.87871H33.4328L25.6717 22.7892L22.6866 16.5205C21.4925 14.6269 19.403 14.6269 17.9105 16.5205C17.3134 17.6119 16.0199 20.6996 15.2239 22.7892L6.86568 4.87871H11.6418Z" fill="#F6D007"/>
<path d="M8.37416 34.3284V26.5672C3.99605 25.2736 -3.44674 19.9403 1.80699 8.95523C3.47864 12.2985 9.6677 24.4776 12.5533 30.1493C13.0508 30.9453 14.5234 32.0597 16.4339 30.1493C18.209 27.4627 19.1045 24.4776 20.016 22.9851V34.3284H8.37416Z" fill="#FF736F"/>
<path d="M31.6258 34.3284V26.5672C36.004 25.2736 43.4467 19.9403 38.193 8.95523C36.5214 12.2985 30.3323 24.4776 27.4467 30.1493C26.9492 30.9453 25.4766 32.0597 23.5661 30.1493C21.791 27.4627 20.8955 24.4776 19.984 22.9851V34.3284H31.6258Z" fill="#FF736F"/>
<line x1="8.35819" y1="39.3059" x2="31.6418" y2="39.3059" stroke="#FF736F" stroke-width="3"/>
</svg>
